<svg xmlns:dc="http://purl.org/dc/elements/1.1/" xmlns:cc="http://creativecommons.org/ns#" xmlns:rdf="http://www.w3.org/1999/02/22-rdf-syntax-ns#" xmlns:svg="http://www.w3.org/2000/svg" xmlns="http://www.w3.org/2000/svg" xmlns:sodipodi="http://sodipodi.sourceforge.net/DTD/sodipodi-0.dtd" xmlns:inkscape="http://www.inkscape.org/namespaces/inkscape" viewBox="0 0 1040.7784 1385.90775" version="1.1" x="0px" y="0px">
  <g transform="translate(6284.0309,-1287.5693)">
    <path style="" d="m -5878.4059,2396.1046 c -153.653,-6.6062 -279.9646,-48.8923 -352.3137,-117.9463 -18.0378,-17.2162 -39.6398,-45.1387 -47.833,-61.8281 l -5.4783,-11.1593 0.1054,-131.9657 c 0.1045,-130.8886 0.1241,-131.8831 2.3945,-121.8373 6.3448,28.0731 24.3507,57.8442 49.2258,81.3905 16.6702,15.7798 53.0748,39.7448 83.2743,54.8191 51.1827,25.5483 113.8679,44.2197 181.875,54.1735 39.9832,5.8521 56.3041,6.8626 111.875,6.9269 29.2187,0.034 57.2031,-0.3643 62.1875,-0.8847 l 9.0625,-0.9462 0,3.9221 c 0,5.8966 3.5818,27.6106 6.882,41.7203 15.3772,65.7446 55.3877,127.4707 109.6349,169.1392 l 12.5108,9.6099 -16.7014,4.0997 c -35.8109,8.7906 -83.6807,16.1617 -122.9513,18.9323 -19.9237,1.4056 -68.8129,2.4763 -83.75,1.8341 z m 374.6727,-39.3934 c -17.7141,-1.4575 -35.4694,-5.2442 -54.8975,-11.708 -71.5713,-23.8122 -127.2268,-79.4676 -151.0389,-151.039 -16.8528,-50.6539 -16.8528,-101.0456 0,-151.6995 23.8121,-71.5714 79.4676,-127.2268 151.0389,-151.039 40.2999,-13.4079 82.3075,-16.1464 122.7248,-8.0005 84.0609,16.942 153.0017,77.8503 180.0137,159.0395 16.8528,50.6539 16.8528,101.0456 0,151.6995 -23.8121,71.5714 -79.4675,127.2268 -151.0389,151.039 -20.3828,6.7814 -36.6935,10.1265 -57.5938,11.8116 -17.7986,1.4351 -20.5973,1.4277 -39.2083,-0.1036 z m 78.4465,-217.966 94.363,-94.3692 -19.9911,-20.0866 c -10.9951,-11.0476 -20.8711,-20.5766 -21.9467,-21.1756 -1.5304,-0.8523 -17.4286,14.3833 -73.125,70.0773 -39.1432,39.1415 -72.017,71.1679 -73.0529,71.1698 -1.036,0 -17.3446,-15.4652 -36.2415,-34.3715 -18.8969,-18.9062 -34.9184,-34.3749 -35.6034,-34.3749 -1.5751,0 -44.3966,42.6901 -44.3966,44.2603 0,1.8638 112.0563,113.2396 113.9316,113.2396 0.9348,0 44.163,-42.4661 96.0626,-94.3692 z m -453.1192,-70.2272 c -123.2151,-4.2307 -236.1591,-35.3019 -311.875,-85.7976 -41.011,-27.3507 -68.3821,-57.9089 -88.0166,-98.2652 l -5.7334,-11.7843 0.1054,-129.4657 c 0.1046,-128.4652 0.1231,-129.3875 2.3945,-119.3373 4.643,20.5432 15.9761,42.8849 31.6387,62.3716 9.114,11.3391 23.8632,25.6854 32.1276,31.25 3.0632,2.0625 10.3596,7.1594 16.2141,11.3264 58.96,41.9654 140.5283,71.6965 234.3947,85.4351 41.0213,6.004 55.997,6.9086 114.375,6.9086 44.1002,0 59.8982,-0.4504 76.25,-2.1736 113.857,-11.9991 202.4727,-41.3561 273.125,-90.4819 17.6019,-12.2389 21.5618,-15.3337 31.5223,-24.6357 23.1689,-21.6372 41.642,-52.5207 47.8528,-80.0005 2.2832,-10.1022 2.2894,-9.8546 2.3945,95.5887 l 0.1054,105.7171 -14.0625,-2.4767 c -19.9591,-3.5151 -71.531,-3.7522 -91.5625,-0.4209 -58.5399,9.7354 -107.0881,31.6808 -150.625,68.0875 -49.1865,41.1311 -85.8533,100.9317 -99.9174,162.9568 l -2.7393,12.081 -5.8591,0.7517 c -8.8545,1.136 -59.4012,3.2205 -71.4842,2.9479 -5.8437,-0.1318 -15.125,-0.3942 -20.625,-0.583 z m -23.75,-327.4463 c -22.5822,-1.7443 -49.97,-4.617 -64.9816,-6.8159 -68.0658,-9.9705 -130.702,-28.6269 -181.8934,-54.1777 -71.1729,-35.524 -114.4124,-79.2737 -131.2614,-132.8102 -3.8762,-12.3165 -4.8739,-41.8847 -1.9115,-56.6534 18.7082,-93.2683 143.6459,-171.0496 315.0479,-196.1366 41.0214,-6.004 55.997,-6.9086 114.375,-6.9086 58.378,0 73.3537,0.9046 114.375,6.9086 68.0056,9.9535 130.6865,28.6235 181.875,54.1729 75.2857,37.5768 122.2839,87.6773 133.1729,141.9637 2.9624,14.7687 1.9647,44.3369 -1.9115,56.6534 -8.4754,26.9299 -21.5074,48.3117 -43.0666,70.6598 -61.0498,63.2836 -171.3865,106.7461 -306.9448,120.9077 -18.3747,1.9196 -110.0546,3.5356 -126.875,2.2363 z" fill="#000000" />
  </g>
</svg>